<svg width="16" height="16" viewBox="0 0 16 16" fill="none" xmlns="http://www.w3.org/2000/svg">
<path d="M12.6668 13.9999V9.99992M10.6668 11.9999H14.6668M14.6668 6.66659H1.3335M14.6668 7.99992V5.46659C14.6668 4.71985 14.6668 4.34648 14.5215 4.06127C14.3937 3.81038 14.1897 3.60641 13.9388 3.47858C13.6536 3.33325 13.2802 3.33325 12.5335 3.33325H3.46683C2.72009 3.33325 2.34672 3.33325 2.06151 3.47858C1.81063 3.60641 1.60665 3.81038 1.47882 4.06126C1.3335 4.34648 1.3335 4.71985 1.3335 5.46659V10.5333C1.3335 11.28 1.3335 11.6534 1.47882 11.9386C1.60665 12.1895 1.81063 12.3934 2.06151 12.5213C2.34672 12.6666 2.72009 12.6666 3.46683 12.6666H8.00016" stroke="black" stroke-width="1.5" stroke-linecap="round" stroke-linejoin="round"/>
</svg>
